# xmcd CD database file
#
# Track frame offsets:
#	150
#	34310
#	71058
#	110216
#	137720
#	169784
#	198996
#	229637
#	260005
#	286610
#
# Disc length: 4301 seconds
#
# Revision: 0
# Processed by: cddbd v1.5.1PL0 Copyright (c) Steve Scherf et al.
# Submitted via: CDex 1.51
#
DISCID=9410cb0a
DTITLE=Emily Remler and Herb Ellis - Live in Amsterdam
DYEAR=1983
DGENRE=Jazz
TTITLE0=Whistle While You Work
TTITLE1=Blues in the Closet
TTITLE2=Here Comes That Rainy Day
TTITLE3=Things Ain't What They Used to Be
TTITLE4=Polka Dots and Moonbeams
TTITLE5=Minor Mishap
TTITLE6=Days of Wine and Roses
TTITLE7=Footprints
TTITLE8=Moanin'
TTITLE9=unknown
EXTD=YEAR: 1983
EXTT0=
EXTT1=
EXTT2=
EXTT3=
EXTT4=
EXTT5=
EXTT6=
EXTT7=
EXTT8=
EXTT9=
PLAYORDER=
